<svg width="30" height="35" viewBox="0 0 35 45" fill="none" xmlns="http://www.w3.org/2000/svg">
<path d="M8 0H0V0.5V7.59758V25.4024V26.9636C0.330301 26.9877 0.663767 27 1 27C1.11331 27 1.2263 26.9986 1.33896 26.9958C8.91435 26.8094 15 20.3908 15 12.5C15 7.80843 12.8487 3.63727 9.51203 0.987005C9.2998 0.818431 8.22157 0.15601 8 0Z" fill="#1DBAB0"/>
<path d="M16 33C26.4934 33 35 25.6127 35 16.5C35 7.3873 26.4934 0 16 0C15.6646 0 15.3312 0.00754857 15 0.0224609V0H8C8.22157 0.15601 9.2998 0.818431 9.51203 0.987005C12.8487 3.63727 15 7.80843 15 12.5C15 20.3908 8.91435 26.8094 1.33896 26.9958C1.2263 26.9986 1.11331 27 1 27C0.663767 27 0.330301 26.9877 0 26.9636V27.5C0.533086 27.5638 14.4538 32.9529 15 32.9775C15.3312 32.9925 15.6646 33 16 33Z" fill="#7F3EFA"/>
<path d="M7.5 45C11.6421 45 15 41.6421 15 37.5V32.9775C14.4538 32.9529 0.533086 27.5638 0 27.5V37.5C0 41.6421 3.35786 45 7.5 45Z" fill="#13D2FF"/>
</svg>
